<svg viewBox="-44 -44 88 88" xmlns="http://www.w3.org/2000/svg" role="img" aria-label="Mobee">
  <ellipse cx="-15" cy="-12" rx="14" ry="18" fill="#FFFFFF" stroke="#212121" stroke-width="1.2" opacity="0.85" transform="rotate(-25 -15 -12)"/>
  <ellipse cx="15" cy="-12" rx="14" ry="18" fill="#FFFFFF" stroke="#212121" stroke-width="1.2" opacity="0.85" transform="rotate(25 15 -12)"/>
  <ellipse cx="0" cy="0" rx="30" ry="28" fill="#FFC107" stroke="#212121" stroke-width="1.8"/>
  <path d="M -25 -5 Q 0 -11 25 -5 L 25 2 Q 0 -3 -25 2 Z" fill="#212121"/>
  <path d="M -27 10 Q 0 16 27 10 L 27 17 Q 0 23 -27 17 Z" fill="#212121"/>
  <circle cx="-9" cy="-10" r="3" fill="#212121"/>
  <circle cx="9" cy="-10" r="3" fill="#212121"/>
  <circle cx="-8" cy="-11" r="1" fill="#FFFFFF"/>
  <circle cx="10" cy="-11" r="1" fill="#FFFFFF"/>
  <path d="M -5 -3 Q 0 1 5 -3" fill="none" stroke="#212121" stroke-width="1.3" stroke-linecap="round"/>
  <path d="M -7 -26 Q -12 -33 -14 -38" fill="none" stroke="#212121" stroke-width="1.3" stroke-linecap="round"/>
  <circle cx="-14" cy="-39" r="2" fill="#212121"/>
  <path d="M 7 -26 Q 12 -33 14 -38" fill="none" stroke="#212121" stroke-width="1.3" stroke-linecap="round"/>
  <circle cx="14" cy="-39" r="2" fill="#212121"/>
</svg>
